<?xml version="1.0" encoding="utf-8"?>
<!-- Generator: Adobe Illustrator 16.0.3, SVG Export Plug-In . SVG Version: 6.00 Build 0)  -->
<!DOCTYPE svg PUBLIC "-//W3C//DTD SVG 1.1//EN" "http://www.w3.org/Graphics/SVG/1.1/DTD/svg11.dtd">
<svg version="1.1" id="レイヤー_1" xmlns="http://www.w3.org/2000/svg" xmlns:xlink="http://www.w3.org/1999/xlink" x="0px"
	 y="0px" width="647px" height="540px" viewBox="0 0 647 540" enable-background="new 0 0 647 540" xml:space="preserve">
<path d="M646.701,428h-6.788v-54.579h-71.548v54.184h-53.543v-6.788h46.754v-47.396h-94.543v54.184h-6.789v-60.972h101.332v-79.331
	h-46.754v-6.788h53.543v86.119h78.336V428z M428.068,427.604h-84.696V326.271h-32.184v101.333h-45.755V249.366h6.788v171.45H304.4
	V319.483h45.76v101.333h71.12v-54.577h6.788V427.604z M77.38,302.908v62.328h-6.788v-62.328H38.409v117.908h132.479v6.788H31.621
	V302.908H0.437v-6.788h31.185v-38.97h6.788v38.97h32.183v-38.97h6.788v38.97h87.122v-38.603h6.788v45.394 M210.258,303.276h-6.788
	v-45.759h6.788V303.276z M646.701,287.702h-6.788v-45.758h6.788V287.702z M607.731,287.702h-6.788v-45.758h6.788V287.702z
	 M568.365,248.33h-53.543v-6.788h53.543V248.33z M443.669,183.254h-6.788v-31.185h-31.174v-6.788h31.174V74.134h-47.777v85.752
	h-30.151V67.346h6.788v85.753h16.575V67.346h54.565V43.983h6.788v23.363h31.181v84.724h-31.181V183.254z M443.669,145.281h24.393
	V74.134h-24.393V145.281z M646.701,178.58H530.798v-6.788h109.115V46.1H523.008v-6.788h123.693V178.58z M295.585,178.212h-92.51
	v-6.788h85.722V92.46h-85.722V46.1h-30.786v-6.788h30.786V-0.057h6.788v39.369h39.359V46.1h-39.359v39.572h85.722V178.212z
	 M124.135,178.212H0.437v-6.788h116.91V45.702H0.437v-6.788h123.698V178.212z M623.311,7.129h-76.939V0.341h76.939V7.129z
	 M101.139,7.129H24.202V0.341h76.937V7.129z"/>
<g>
	<path d="M122.797,462.5V485h-2.85l-0.06-2.25h-0.061c-1.14,1.7-2.75,2.55-4.83,2.55c-1.9,0-3.425-0.694-4.575-2.085
		c-1.15-1.39-1.725-3.395-1.725-6.015c0-2.66,0.555-4.675,1.665-6.045s2.655-2.056,4.635-2.056c2,0,3.58,0.801,4.74,2.4h0.06v-9
		H122.797z M111.638,477.2c0,1.84,0.375,3.25,1.125,4.229c0.75,0.98,1.744,1.471,2.984,1.471c1.18,0,2.149-0.49,2.91-1.471
		c0.76-0.979,1.14-2.34,1.14-4.08v-0.3c0-1.72-0.38-3.075-1.14-4.064c-0.761-0.99-1.73-1.485-2.91-1.485
		c-1.3,0-2.31,0.476-3.03,1.425C111.997,473.875,111.638,475.3,111.638,477.2z"/>
	<path d="M135.518,480.8c0-1.74,0.734-3.135,2.205-4.185c1.47-1.05,3.585-1.575,6.345-1.575h1.5v-0.15c0-1.26-0.255-2.14-0.766-2.64
		c-0.51-0.5-1.405-0.75-2.685-0.75c-1.9,0-3.65,0.45-5.25,1.35l-0.45-2.399c1.681-0.9,3.58-1.351,5.7-1.351
		c2.26,0,3.9,0.455,4.92,1.365c1.021,0.91,1.53,2.355,1.53,4.335v6c0,1.421,0.149,2.82,0.45,4.2h-2.851
		c-0.16-0.88-0.25-1.68-0.27-2.4h-0.061c-0.56,0.841-1.335,1.5-2.325,1.98c-0.989,0.479-2.104,0.72-3.345,0.72
		c-1.42,0-2.55-0.399-3.39-1.2C135.938,483.301,135.518,482.2,135.518,480.8z M145.567,477.26h-1.5c-1.8,0-3.186,0.311-4.155,0.931
		c-0.971,0.62-1.455,1.439-1.455,2.46c0,0.74,0.226,1.325,0.675,1.755c0.45,0.43,1.045,0.645,1.785,0.645
		c1.26,0,2.35-0.435,3.271-1.305c0.919-0.87,1.38-1.936,1.38-3.195V477.26z"/>
	<path d="M164.887,469.4l0.06,2.25h0.061c0.64-0.8,1.41-1.426,2.31-1.875c0.9-0.45,1.84-0.676,2.82-0.676c3.399,0,5.1,2.301,5.1,6.9
		v9h-2.939v-8.7c0-1.819-0.235-3.064-0.705-3.734c-0.471-0.67-1.305-1.006-2.505-1.006c-1.021,0-1.95,0.506-2.79,1.516
		s-1.26,2.186-1.26,3.524v8.4h-3v-15.6H164.887z"/>
	<path d="M189.456,465.8v-3.3h3.181v3.3H189.456z M189.456,485v-15.6h3.181V485H189.456z"/>
	<path d="M209.436,469.4l2.82,12.899h0.06l2.67-12.899h4.2l2.67,12.899h0.061l2.819-12.899h3.24l-4.2,15.6h-4.05l-2.67-12.6h-0.06
		l-2.671,12.6h-4.05l-4.2-15.6H209.436z"/>
	<path d="M242.405,478.4c0.061,1.399,0.545,2.51,1.455,3.33s2.056,1.229,3.436,1.229c1.5,0,3-0.38,4.5-1.14l0.75,2.279
		c-1.74,0.801-3.591,1.2-5.551,1.2c-2.239,0-4.075-0.734-5.505-2.205c-1.43-1.47-2.145-3.435-2.145-5.895
		c0-2.521,0.665-4.5,1.995-5.94c1.33-1.439,3.114-2.16,5.354-2.16c2.221,0,3.95,0.681,5.19,2.04c1.239,1.36,1.859,3.33,1.859,5.91
		c0,0.3-0.02,0.75-0.06,1.351H242.405z M242.405,476.06h8.431c-0.021-1.479-0.396-2.619-1.125-3.42
		c-0.73-0.8-1.735-1.199-3.016-1.199s-2.305,0.404-3.075,1.215C242.851,473.465,242.445,474.601,242.405,476.06z"/>
	<path d="M267.215,485v-22.5h3.181V485H267.215z"/>
	<path d="M285.784,485v-22.5h3.181V485H285.784z"/>
	<path d="M321.604,463.1h13.5v2.7l-6.45,6.271v0.06h0.601c1.939,0,3.45,0.516,4.53,1.545c1.079,1.03,1.619,2.505,1.619,4.425
		c0,2.28-0.694,4.051-2.085,5.311c-1.39,1.26-3.345,1.89-5.864,1.89c-2.181,0-4.131-0.499-5.851-1.5l0.9-2.7
		c1.819,1.001,3.47,1.5,4.95,1.5c1.479,0,2.625-0.39,3.435-1.17c0.81-0.779,1.215-1.89,1.215-3.33c0-1.22-0.435-2.124-1.305-2.715
		c-0.87-0.59-2.285-0.885-4.245-0.885h-2.1v-2.52l6.449-6.12V465.8h-9.3V463.1z"/>
	<path d="M359.313,469.1v2.521c-2.2,0-3.94,0.595-5.221,1.785c-1.28,1.189-1.92,2.755-1.92,4.694v6.9h-3.06v-15.6h2.91l0.06,3h0.061
		C353.983,470.2,356.373,469.1,359.313,469.1z"/>
	<path d="M385.233,462.5V485h-2.851l-0.06-2.25h-0.061c-1.14,1.7-2.75,2.55-4.83,2.55c-1.899,0-3.425-0.694-4.574-2.085
		c-1.15-1.39-1.726-3.395-1.726-6.015c0-2.66,0.556-4.675,1.665-6.045c1.11-1.37,2.655-2.056,4.635-2.056c2,0,3.58,0.801,4.74,2.4
		h0.061v-9H385.233z M374.073,477.2c0,1.84,0.375,3.25,1.125,4.229c0.75,0.98,1.744,1.471,2.984,1.471c1.181,0,2.15-0.49,2.91-1.471
		c0.76-0.979,1.141-2.34,1.141-4.08v-0.3c0-1.72-0.381-3.075-1.141-4.064c-0.76-0.99-1.729-1.485-2.91-1.485
		c-1.3,0-2.31,0.476-3.029,1.425C374.433,473.875,374.073,475.3,374.073,477.2z"/>
	<path d="M415.413,485l7.8-21.9h3.601l7.8,21.9h-3.54l-1.89-5.82h-8.461l-1.89,5.82H415.413z M421.533,476.6h6.84l-3.39-10.5h-0.061
		L421.533,476.6z"/>
	<path d="M447.782,485v-22.5h3.18V485H447.782z"/>
	<path d="M465.452,462.5h3v9h0.061c1.159-1.6,2.739-2.4,4.74-2.4c1.979,0,3.524,0.686,4.635,2.056s1.665,3.385,1.665,6.045
		c0,2.62-0.575,4.625-1.726,6.015c-1.149,1.391-2.675,2.085-4.574,2.085c-2.081,0-3.69-0.85-4.83-2.55h-0.061l-0.06,2.25h-2.851
		V462.5z M476.612,477.2c0-1.9-0.359-3.325-1.08-4.275c-0.72-0.949-1.729-1.425-3.029-1.425c-1.181,0-2.15,0.495-2.91,1.485
		c-0.761,0.989-1.141,2.345-1.141,4.064v0.3c0,1.74,0.38,3.101,1.141,4.08c0.76,0.98,1.729,1.471,2.91,1.471
		c1.239,0,2.234-0.49,2.984-1.471C476.237,480.45,476.612,479.04,476.612,477.2z"/>
	<path d="M501.872,485l-0.06-2.25h-0.06c-1.32,1.7-3.03,2.55-5.131,2.55c-1.6,0-2.8-0.479-3.6-1.439s-1.2-2.48-1.2-4.561V469.4h2.94
		v9.6c0,1.42,0.225,2.405,0.675,2.955s1.195,0.825,2.235,0.825c1.02,0,1.949-0.495,2.79-1.485c0.84-0.99,1.26-2.154,1.26-3.495
		V469.4h3V485H501.872z"/>
	<path d="M520.892,469.4l0.061,2.1h0.06c1.14-1.6,2.45-2.4,3.93-2.4c1.9,0,3.29,0.9,4.171,2.7h0.06c1.18-1.8,2.67-2.7,4.47-2.7
		c1.64,0,2.851,0.471,3.63,1.41c0.78,0.94,1.17,2.471,1.17,4.59v9.9h-2.939v-9c0-1.76-0.19-2.95-0.57-3.57
		c-0.38-0.619-1.061-0.93-2.04-0.93c-0.82,0-1.55,0.445-2.189,1.335c-0.641,0.891-0.96,1.945-0.96,3.165v9h-2.94v-9
		c0-1.76-0.19-2.95-0.57-3.57c-0.38-0.619-1.06-0.93-2.04-0.93c-0.82,0-1.55,0.445-2.189,1.335c-0.641,0.891-0.96,1.945-0.96,3.165
		v9h-3v-15.6H520.892z"/>
</g>
<text transform="matrix(1 0 0 1 97.6328 514)" display="none" font-family="'mplus-1p-medium'" font-size="30" letter-spacing="9">daniwell 3rd Album</text>
</svg>
